<?xml version="1.0" encoding="utf-8"?>

<!-- Generator: Adobe Illustrator 27.5.0, SVG Export Plug-In . SVG Version: 6.00 Build 0)  -->
<svg version="1.1" id="Camada_1" xmlns="http://www.w3.org/2000/svg" xmlns:xlink="http://www.w3.org/1999/xlink" x="0px"
     y="0px"
     viewBox="0 0 1300 1300" style="enable-background:new 0 0 1300 1300;" xml:space="preserve">
<g>
	<linearGradient id="SVGID_1_" gradientUnits="userSpaceOnUse" x1="246.244" y1="657.3989" x2="392.7117" y2="657.3989">
		<stop offset="0" style="stop-color:#4FBFA5" />
		<stop offset="0.0161" style="stop-color:#3EBAA2" />
		<stop offset="0.044" style="stop-color:#27B49D" />
		<stop offset="0.0765" style="stop-color:#16AF9A" />
		<stop offset="0.1158" style="stop-color:#09AB97" />
		<stop offset="0.1689" style="stop-color:#02A996" />
		<stop offset="0.2959" style="stop-color:#00A995" />
		<stop offset="1" style="stop-color:#007570" />
	</linearGradient>
	<path style="fill:url(#SVGID_1_);"
	      d="M368.043,677.82H246.244v-16.174c0-13.624,11.044-24.668,24.668-24.668h121.799v16.174
		C392.712,666.775,381.667,677.82,368.043,677.82z" />
	
		<linearGradient id="SVGID_00000163756633411715388940000004980811625640425122_" gradientUnits="userSpaceOnUse"
		                x1="319.4778" y1="730.6327" x2="319.4778" y2="584.1651">
		<stop offset="0" style="stop-color:#007570" />
		<stop offset="0.7041" style="stop-color:#00A995" />
		<stop offset="0.8311" style="stop-color:#02A996" />
		<stop offset="0.8842" style="stop-color:#09AB97" />
		<stop offset="0.9235" style="stop-color:#16AF9A" />
		<stop offset="0.956" style="stop-color:#27B49D" />
		<stop offset="0.9839" style="stop-color:#3EBAA2" />
		<stop offset="1" style="stop-color:#4FBFA5" />
	</linearGradient>
	<path style="fill:url(#SVGID_00000163756633411715388940000004980811625640425122_);"
	      d="M299.057,730.633V608.833
		c0-13.624,11.044-24.668,24.668-24.668h16.174v121.799c0,13.624-11.044,24.668-24.668,24.668H299.057z" />
	
		<linearGradient id="SVGID_00000117657690960334468700000011251058497124596667_" gradientUnits="userSpaceOnUse"
		                x1="148.6479" y1="606.6469" x2="495.4082" y2="606.6469">
		<stop offset="0" style="stop-color:#00386C" />
		<stop offset="0.7041" style="stop-color:#007DB0" />
		<stop offset="0.8558" style="stop-color:#007EB2" />
		<stop offset="0.9193" style="stop-color:#0081B9" />
		<stop offset="0.9661" style="stop-color:#0088C6" />
		<stop offset="1" style="stop-color:#008FD5" />
	</linearGradient>
	<path style="fill:url(#SVGID_00000117657690960334468700000011251058497124596667_);"
	      d="M238.623,718.221
		c-14.449-8.139-28.246-17.634-40.843-28.782c-6.326-5.544-12.21-11.634-17.711-18.11c-5.477-6.495-10.52-13.443-14.875-20.874
		l-3.092-5.678l-2.77-5.753c-1.75-3.97-3.432-8.218-4.75-12.304c-2.704-8.293-4.553-16.903-5.435-25.679
		c-1.652-17.512,0.709-35.87,8.396-52.537l3.123-6.126l3.628-5.874l0.229-0.367l0.43-0.587l0.458-0.626l0.915-1.253l1.831-2.506
		c1.571-1.831,3.16-3.73,4.777-5.473c6.347-6.698,13.689-12.374,21.622-16.941c7.93-4.588,16.496-7.979,25.33-10.289
		c8.842-2.286,17.993-3.482,27.194-3.383c2.299,0.037,4.6,0.203,6.9,0.31l6.527,0.731c2.343,0.403,4.768,0.767,7.041,1.244
		c2.214,0.536,4.462,0.971,6.647,1.608c8.79,2.399,17.247,5.846,25.18,10.173c15.87,8.646,29.841,20.518,40.861,34.762
		l-15.917-1.165c6.11-5.761,12.829-10.807,19.983-15.091c7.155-4.276,14.752-7.815,22.683-10.375
		c15.81-5.127,32.855-7.161,49.551-4.51c2.093,0.212,4.147,0.76,6.215,1.158c2.075,0.379,4.112,0.942,6.137,1.554l3.042,0.885
		l0.38,0.111l0.19,0.056l0.562,0.195l0.663,0.253l1.327,0.505l2.653,1.01l1.324,0.512l1.508,0.699
		c2.007,0.959,4.077,1.903,6.003,2.918l5.462,3.194c3.511,2.319,6.978,4.7,10.159,7.428c12.905,10.666,22.85,24.736,28.415,40.498
		c2.79,7.868,4.475,16.161,4.833,24.548l-0.057,6.294l-0.011,0.785l-0.034,0.602l-0.032,0.354l-0.133,1.414l-0.295,2.839
		c-0.627,4.36-1.397,8.405-2.552,12.325c-2.241,7.886-5.453,15.389-9.481,22.313c-4.021,6.928-8.661,13.414-13.926,19.287
		c-10.571,11.733-22.895,21.381-35.941,29.441c-13.009,8.14-26.605,14.94-40.281,21.522c12.535-8.563,25.212-16.915,36.976-26.221
		c11.715-9.309,22.71-19.445,31.336-31.187c4.266-5.89,8.135-12.01,11.222-18.454c3.13-6.418,5.407-13.155,6.807-19.961
		c0.748-3.413,1.096-6.873,1.352-10.029l0.084-2.826l0.051-1.419l0.013-0.355l0.007-0.177c0.012-0.239-0.011,0.226-0.011,0.15
		l-0.004-0.079l-0.031-0.634l-0.22-5.061c-0.662-6.733-2.381-13.352-4.989-19.617c-2.619-6.258-6.064-12.204-10.29-17.551
		c-4.257-5.32-9.136-10.12-14.476-14.268c-2.646-2.116-5.515-3.901-8.378-5.66l-4.436-2.374l-4.278-1.9l-1.076-0.478l-1.342-0.463
		l-2.68-0.938l-1.34-0.469l-0.67-0.235l-0.084-0.029c-0.377-0.13,0.419,0.143,0.31,0.109l-0.152-0.039l-0.304-0.078l-2.431-0.626
		c-1.612-0.445-3.232-0.857-4.897-1.099c-1.657-0.261-3.281-0.683-4.967-0.788c-13.338-1.718-27.153,0.164-40.022,4.535
		c-6.463,2.173-12.598,5.247-18.427,8.729c-5.812,3.525-11.241,7.652-16.133,12.303l-8.563,8.144l-7.355-9.309
		c-9.344-11.827-20.987-21.953-34.149-29.181c-6.58-3.601-13.498-6.531-20.631-8.621c-1.775-0.558-3.594-0.92-5.388-1.399
		c-1.767-0.4-3.434-0.663-5.155-1.026l-5.789-0.753c-1.829-0.099-3.654-0.273-5.488-0.334c-14.687-0.461-29.667,2.986-42.722,9.895
		c-6.534,3.438-12.58,7.764-17.817,12.883l-3.558,3.715l-3.666,4.521l-3.142,4.523l-2.772,4.791
		c-3.459,6.546-5.949,13.692-7.478,21.117c-1.545,7.428-2.081,15.128-1.853,22.849c0.204,7.728,1.272,15.494,3.145,23.093
		c0.951,3.872,2.061,7.415,3.363,11.132l2.206,5.611l2.454,5.421c3.415,7.178,7.464,14.119,12.074,20.732
		c4.587,6.635,9.779,12.883,15.225,18.956C213.096,697.128,225.563,708.004,238.623,718.221z" />
</g>
<g>
	<path style="fill:#00A995;"
	      d="M557.223,643.183v-89.191h35.167c27.948,0,47.337,17.785,47.337,44.528
		c0,27.011-19.389,44.663-47.203,44.663H557.223z M620.338,598.52c0-15.644-9.627-27.812-27.814-27.812h-16.313v55.759h16.179
		C610.042,626.468,620.338,613.766,620.338,598.52z" />
	<path style="fill:#00A995;"
	      d="M652.843,643.183v-64.586h16.982v8.691c4.681-5.616,12.57-10.296,20.592-10.296v16.58
		c-1.203-0.268-2.674-0.401-4.68-0.401c-5.616,0-13.105,3.21-15.913,7.354v42.657H652.843z" />
	<path style="fill:#00A995;"
	      d="M744.578,643.183v-8.157c-4.413,4.815-12.168,9.763-22.732,9.763
		c-14.174,0-20.861-7.757-20.861-20.326v-45.865h16.982v39.18c0,8.958,4.681,11.9,11.902,11.9c6.551,0,11.767-3.61,14.708-7.353
		v-43.727h16.982v64.586H744.578z" />
	<path style="fill:#00A995;"
	      d="M777.081,659.763l7.622-12.169c5.215,5.616,12.168,7.89,20.192,7.89
		c8.157,0,17.918-3.475,17.918-16.58v-6.284c-5.081,6.417-12.034,10.027-20.058,10.027c-16.045,0-28.482-11.232-28.482-32.759
		c0-21.127,12.168-32.895,28.482-32.895c7.755,0,14.843,3.21,20.058,9.895v-8.29h16.982v60.307
		c0,24.469-18.987,30.489-34.901,30.489C793.929,669.393,785.239,666.852,777.081,659.763z M822.813,620.319v-20.994
		c-2.942-4.146-9.092-7.221-14.576-7.221c-9.761,0-16.447,6.685-16.447,17.785s6.686,17.784,16.447,17.784
		C813.721,627.672,819.871,624.462,822.813,620.319z" />
	<path style="fill:#006699;"
	      d="M850.904,630.614l10.431-14.843c6.285,6.553,16.046,12.169,28.348,12.169
		c10.563,0,15.511-4.682,15.511-9.895c0-15.514-51.348-4.683-51.348-38.246c0-14.843,12.837-27.143,33.831-27.143
		c14.174,0,25.941,4.279,34.766,12.436l-10.563,14.174c-7.221-6.685-16.849-9.762-25.942-9.762c-8.023,0-12.569,3.478-12.569,8.826
		c0,14.042,51.214,4.547,51.214,37.843c0,16.315-11.768,28.616-35.703,28.616C871.63,644.788,859.328,639.037,850.904,630.614z" />
	<path style="fill:#006699;"
	      d="M938.5,627.004V593.44h-10.698v-14.842H938.5v-17.652h16.984v17.652h13.104v14.842h-13.104v29.017
		c0,4.147,2.138,7.221,5.883,7.221c2.541,0,4.948-0.936,5.884-2.005l3.61,12.969c-2.54,2.273-7.087,4.147-14.174,4.147
		C944.785,644.788,938.5,638.636,938.5,627.004z" />
	<path style="fill:#006699;"
	      d="M976.081,610.824c0-18.32,12.837-33.831,34.098-33.831c21.395,0,34.232,15.511,34.232,33.831
		c0,18.318-12.837,33.964-34.232,33.964C988.918,644.788,976.081,629.142,976.081,610.824z M1026.76,610.824
		c0-10.03-5.884-18.721-16.582-18.721c-10.564,0-16.447,8.691-16.447,18.721c0,10.163,5.884,18.853,16.447,18.853
		C1020.876,629.678,1026.76,620.987,1026.76,610.824z" />
	<path style="fill:#006699;"
	      d="M1057.124,643.183v-64.586h16.982v8.691c4.681-5.616,12.57-10.296,20.594-10.296v16.58
		c-1.204-0.268-2.676-0.401-4.681-0.401c-5.616,0-13.105,3.21-15.913,7.354v42.657H1057.124z" />
	<path style="fill:#006699;"
	      d="M1101.123,610.824c0-18.721,13.906-33.831,33.429-33.831c19.39,0,32.361,14.442,32.361,35.437v4.011
		h-48.006c1.203,7.889,7.622,14.442,18.587,14.442c5.482,0,12.971-2.273,17.116-6.284l7.621,11.232
		c-6.419,5.884-16.58,8.959-26.609,8.959C1115.966,644.788,1101.123,631.551,1101.123,610.824z M1134.553,590.899
		c-10.564,0-15.111,7.357-15.779,13.773h31.826C1150.064,598.52,1145.785,590.899,1134.553,590.899z" />
</g>
<g>
	<path style="fill:#00386C;"
	      d="M623.609,707.148v-22.304h-5.187v-2.984h5.187v-8.558h3.436v8.558h6.354v2.984h-6.354v21.784
		c0,2.529,1.037,4.279,3.242,4.279c1.492,0,2.788-0.711,3.502-1.49l1.296,2.593c-1.232,1.168-2.724,1.945-5.316,1.945
		C625.62,713.954,623.609,711.427,623.609,707.148z" />
	<path style="fill:#00386C;"
	      d="M673.658,713.177v-3.695c-2.787,3.047-6.289,4.472-10.633,4.472
		c-5.381,0-10.958-3.695-10.958-10.437c0-6.808,5.512-10.374,10.958-10.374c4.344,0,7.911,1.427,10.633,4.475v-6.357
		c0-4.667-3.76-7.197-8.364-7.197c-3.955,0-7.003,1.364-9.854,4.604l-1.88-2.334c3.242-3.502,6.873-5.252,12.058-5.252
		c6.355,0,11.413,3.047,11.413,10.049v22.046H673.658z M673.658,707.019v-6.875c-2.204-2.918-5.705-4.342-9.466-4.342
		c-5.122,0-8.558,3.307-8.558,7.778c0,4.408,3.436,7.718,8.558,7.718C667.953,711.298,671.454,709.871,673.658,707.019z" />
	<path style="fill:#00386C;"
	      d="M700.559,721.151l1.945-2.722c2.724,3.243,5.705,4.409,10.439,4.409
		c5.64,0,10.633-2.852,10.633-9.919v-4.993c-2.204,3.243-6.224,5.899-10.892,5.899c-8.299,0-13.941-6.288-13.941-16.339
		c0-9.919,5.642-16.402,13.941-16.402c4.473,0,8.364,2.271,10.892,5.836v-5.059h3.437v31.058c0,9.531-6.485,12.966-14.07,12.966
		C707.627,725.885,704.255,724.912,700.559,721.151z M723.576,705.074v-15.237c-1.814-3.047-5.964-5.706-10.309-5.706
		c-6.936,0-10.956,5.77-10.956,13.355c0,7.588,4.02,13.292,10.956,13.292C717.612,710.777,721.761,708.121,723.576,705.074z" />
	<path style="fill:#00386C;" d="M750.412,713.177v-43.245h3.371v43.245H750.412z" />
	<path style="fill:#00386C;"
	      d="M776.342,674.341c0-1.427,1.232-2.529,2.594-2.529c1.426,0,2.593,1.102,2.593,2.529
		c0,1.424-1.167,2.593-2.593,2.593C777.574,676.933,776.342,675.765,776.342,674.341z M777.25,713.177V681.86h3.371v31.317H777.25z" />
	<path style="fill:#00386C;"
	      d="M825.225,713.177v-21.202c0-6.028-3.046-7.844-7.585-7.844c-4.02,0-8.17,2.53-10.18,5.381v23.666
		h-3.371V681.86h3.371v4.734c2.27-2.722,6.744-5.511,11.282-5.511c6.354,0,9.856,3.114,9.856,10.178v21.916H825.225z" />
	<path style="fill:#00386C;"
	      d="M850.311,697.485c0-9.076,6.354-16.402,15.043-16.402c9.531,0,14.782,7.522,14.782,16.598v0.906
		h-26.193c0.324,6.808,4.863,12.448,12.254,12.448c3.955,0,7.585-1.491,10.244-4.342l1.75,2.204
		c-3.112,3.24-7.067,5.056-12.254,5.056C856.796,713.954,850.311,707.148,850.311,697.485z M865.289,684.001
		c-7.391,0-11.087,6.483-11.346,11.931H876.7C876.635,690.614,873.133,684.001,865.289,684.001z" />
	<path style="fill:#00386C;"
	      d="M952.676,713.177v-21.332c0-6.029-3.047-7.715-7.585-7.715c-4.02,0-8.17,2.53-10.18,5.381v23.666
		h-3.371v-43.245h3.371v16.661c2.269-2.722,6.744-5.511,11.282-5.511c6.354,0,9.856,2.981,9.856,10.049v22.046H952.676z" />
	<path style="fill:#00386C;"
	      d="M977.761,697.485c0-9.076,6.355-16.402,15.043-16.402c9.531,0,14.782,7.522,14.782,16.598v0.906
		h-26.194c0.324,6.808,4.863,12.448,12.254,12.448c3.954,0,7.585-1.491,10.244-4.342l1.75,2.204
		c-3.112,3.24-7.067,5.056-12.254,5.056C984.246,713.954,977.761,707.148,977.761,697.485z M992.739,684.001
		c-7.391,0-11.088,6.483-11.347,11.931h22.758C1004.085,690.614,1000.583,684.001,992.739,684.001z" />
	<path style="fill:#00386C;"
	      d="M1029.235,713.177V681.86h3.371v5.381c2.659-3.499,6.224-6.029,10.57-6.029v3.695
		c-0.584-0.13-1.039-0.13-1.686-0.13c-3.177,0-7.456,2.855-8.883,5.577v22.822H1029.235z" />
	<path style="fill:#00386C;"
	      d="M1061,697.485c0-9.076,6.354-16.402,15.043-16.402c9.531,0,14.782,7.522,14.782,16.598v0.906
		h-26.194c0.324,6.808,4.863,12.448,12.254,12.448c3.955,0,7.585-1.491,10.244-4.342l1.75,2.204
		c-3.112,3.24-7.067,5.056-12.254,5.056C1067.484,713.954,1061,707.148,1061,697.485z M1075.978,684.001
		c-7.391,0-11.088,6.483-11.347,11.931h22.758C1087.324,690.614,1083.822,684.001,1075.978,684.001z" />
</g>
</svg>